<svg xmlns="http://www.w3.org/2000/svg" viewBox="0 0 182.66 56.34" fill="currentColor" role="img" aria-label="Coop Bank Investering"><g transform="translate(0 3.17)"><path d="M81.0557 0.708762C81.0557 0.433459 81.2763 0.210873 81.5491 0.210873H89.8799C93.5954 0.210873 95.4764 1.49953 95.4764 4.21742V4.70945C95.4764 5.88681 94.9713 6.82402 94.0599 7.52106C93.7812 7.73194 93.7928 8.14196 94.0773 8.34112C95.2267 9.1436 95.7783 10.2682 95.7783 11.9025V12.4414C95.7783 15.3233 93.6186 16.9634 89.8103 16.9634H81.5491C81.2763 16.9634 81.0557 16.7408 81.0557 16.4655V0.708762ZM89.2762 6.72444C90.4605 6.72444 91.0875 6.25584 91.0875 5.20148V4.96718C91.0875 3.91283 90.5998 3.49109 89.3923 3.49109H86.2167C85.9438 3.49109 85.7232 3.71367 85.7232 3.98898V6.22655C85.7232 6.50185 85.9438 6.72444 86.2167 6.72444H89.2762ZM89.2762 13.4723C90.7159 13.4723 91.25 13.0271 91.25 11.8322V11.5979C91.25 10.4264 90.6927 9.93436 89.3923 9.93436H86.2167C85.9438 9.93436 85.7232 10.1569 85.7232 10.4323V12.9744C85.7232 13.2497 85.9438 13.4723 86.2167 13.4723H89.2762Z"/><path d="M102.205 0.210873H107.982C108.191 0.210873 108.376 0.345596 108.446 0.544752L113.903 16.2956C114.013 16.6178 113.775 16.9575 113.439 16.9575H109.665C109.45 16.9575 109.265 16.817 109.195 16.6119L108.394 14.1576C108.33 13.9526 108.138 13.812 107.923 13.812H102.043C101.828 13.812 101.642 13.9526 101.572 14.1576L100.771 16.6119C100.707 16.817 100.516 16.9575 100.301 16.9575H96.7364C96.3939 16.9575 96.1558 16.6178 96.2719 16.2956L101.741 0.544752C101.81 0.345596 101.996 0.210873 102.205 0.210873ZM106.397 10.0749C106.733 10.0749 106.971 9.74107 106.867 9.4189L105.038 3.79568H104.968L103.14 9.4189C103.035 9.74107 103.273 10.0749 103.61 10.0749H106.402H106.397Z"/><path d="M115.819 0.210873H120.718C120.898 0.210873 121.067 0.310451 121.154 0.474461L126.356 10.3092H126.379V0.708762C126.379 0.433459 126.599 0.210873 126.872 0.210873H130.414C130.686 0.210873 130.907 0.433459 130.907 0.708762V16.4596C130.907 16.7349 130.686 16.9575 130.414 16.9575H125.816C125.636 16.9575 125.467 16.858 125.38 16.6939L119.9 6.32027H119.853V16.4596C119.853 16.7349 119.633 16.9575 119.36 16.9575H115.819C115.546 16.9575 115.325 16.7349 115.325 16.4596V0.708762C115.325 0.433459 115.546 0.210873 115.819 0.210873Z"/><path d="M133.351 0.210873H137.031C137.304 0.210873 137.525 0.433459 137.525 0.708762V5.55293C137.525 6.01568 138.094 6.22655 138.39 5.88096L143.11 0.386598C143.203 0.275305 143.342 0.21673 143.481 0.21673H147.888C148.317 0.21673 148.544 0.732192 148.248 1.05436L143.162 6.619C143.011 6.78302 142.988 7.02903 143.104 7.22233L148.636 16.2136C148.84 16.5475 148.602 16.9751 148.219 16.9751H143.981C143.806 16.9751 143.644 16.8814 143.551 16.7291L140.172 10.8599C140.004 10.5728 139.609 10.526 139.383 10.772L137.647 12.664C137.56 12.7577 137.513 12.8748 137.513 13.0037V16.4831C137.513 16.7584 137.293 16.981 137.02 16.981H133.339C133.066 16.981 132.846 16.7584 132.846 16.4831V0.708762C132.846 0.433459 133.066 0.210873 133.339 0.210873H133.351Z"/><path d="M62.6407 0.0878957C58.0022 0.0820382 54.2344 2.03259 52.8586 5.52368C51.4943 2.02674 47.7381 0.0644656 43.0996 0.0586081C38.9777 0.0527506 35.5467 1.59328 33.8632 4.38732C32.1912 1.58156 28.766 0.0293205 24.6441 0.023463C18.7806 0.0117479 14.3046 3.13381 14.2988 8.54616C14.2988 9.91096 14.5833 11.1293 15.1058 12.1895C15.0361 12.2188 14.9722 12.2481 14.9026 12.2774C14.6355 12.3828 14.3453 12.4824 14.026 12.5761C13.2132 12.7987 12.3017 12.9217 11.3845 12.9159C8.7256 12.9159 6.33956 11.2172 6.34537 8.62231C6.34537 5.80484 8.40049 4.12373 11.0594 4.12959C12.0753 4.12959 12.8533 4.19402 13.6544 4.48104C13.6544 4.48104 14.5717 2.46605 16.1159 1.30626C15.8198 1.16568 15.5122 1.03096 15.1812 0.890377C13.7879 0.281194 12.1682 3.28514e-05 10.3453 3.28514e-05C4.48182 -0.0116822 0.0116335 3.11038 2.2596e-05 8.52273C-0.0115883 13.8999 4.45279 17.0396 10.3163 17.0454C11.8663 17.0454 13.5906 16.8228 15.0767 16.407C15.6341 16.2722 16.9345 15.8271 17.8866 15.2706C19.6688 16.4362 22.0026 17.063 24.6151 17.0689C28.7369 17.0747 32.168 15.5342 33.8457 12.7519C35.5177 15.54 38.9429 17.0923 43.0648 17.0981C47.1808 17.104 50.606 15.5693 52.2896 12.7987L52.2722 21.462L58.5827 21.4737V16.5768C59.8135 16.94 61.1661 17.1333 62.6059 17.1333C68.4694 17.145 72.9454 14.0229 72.9512 8.64574C72.957 3.26853 68.51 0.0996108 62.6407 0.0878957ZM24.6209 13.1326C21.7878 13.1326 20.6384 10.9653 20.6384 8.55788C20.6384 6.15043 21.8053 3.95972 24.6325 3.96558C27.4656 3.96558 28.6208 6.13286 28.615 8.56959C28.6092 11.0063 27.4481 13.1326 24.6151 13.1267L24.6209 13.1326ZM43.0764 13.1619C40.2491 13.1619 39.088 10.9946 39.0938 8.58716C39.0938 6.14458 40.2607 3.98901 43.0938 3.99486C45.9269 4.00072 47.0821 6.16215 47.0763 8.59888C47.0763 11.0063 45.9094 13.1619 43.0822 13.156L43.0764 13.1619ZM62.6233 13.197C59.7961 13.197 58.635 11.0298 58.6408 8.62231C58.6408 6.17972 59.8077 4.02415 62.6407 4.03001C65.4738 4.03587 66.6291 6.19729 66.6232 8.63402C66.6174 11.0708 65.4564 13.197 62.6291 13.1912L62.6233 13.197Z"/></g><g transform="translate(153.31 1.6) scale(0.24600)" fill-rule="evenodd"><path d="M54.297 99.883C50.913 99.19,49.457 97.705,49.451 94.939C49.444 92.114,47.413 87.267,43.591 80.957C42.201 78.661,42.26 78.758,41.758 77.958C41.341 77.292,39.218 74.131,38.803 73.559C38.642 73.337,38.091 72.563,37.578 71.84C35.377 68.736,35.946 69.116,33.266 68.963C32.07 68.895,30.705 68.775,30.233 68.697C29.76 68.619,29.24 68.555,29.076 68.554C28.913 68.554,28.503 68.491,28.166 68.415C27.829 68.338,27.189 68.199,26.744 68.105C25.892 67.927,25.026 67.701,24.52 67.527C24.353 67.469,24.057 67.387,23.862 67.345C23.668 67.303,23.395 67.221,23.256 67.164C23.117 67.106,22.821 66.991,22.599 66.907C20.177 65.995,19.14 65.477,16.29 63.751C13.033 61.78,7.641 55.973,6.37 53.068C6.313 52.938,6.177 52.695,6.069 52.528C5.469 51.602,3.887 48.188,3.164 46.259C3.081 46.036,2.949 45.705,2.871 45.522C2.794 45.34,2.73 45.125,2.73 45.046C2.73 44.966,2.666 44.751,2.588 44.569C2.51 44.386,2.367 43.964,2.269 43.63C2.172 43.296,2.035 42.841,1.966 42.619C1.848 42.239,1.691 41.651,1.361 40.344C0.708 37.765,-0.065 32.535,0.016 31.244L0.051 30.688L0.607 30.652C1.595 30.588,6.926 31.002,10.313 31.405C13.326 31.763,16.779 32.351,19.161 32.912C19.494 32.991,20.177 33.152,20.677 33.27C21.178 33.387,21.724 33.523,21.891 33.57C23.837 34.123,24.154 34.219,25.076 34.537C25.493 34.681,25.971 34.836,26.138 34.883C26.304 34.929,26.691 35.066,26.997 35.187C27.303 35.308,27.644 35.432,27.755 35.464C27.867 35.496,28.047 35.583,28.157 35.658C28.267 35.733,28.414 35.794,28.485 35.794C28.794 35.794,32.893 37.811,33.923 38.469C36.229 39.944,36.679 40.272,38.17 41.565C40.918 43.948,43.32 47.294,44.332 50.152C45.431 53.251,45.804 55.326,45.804 58.342C45.804 61.105,45.283 64.411,44.474 66.785C44.417 66.951,44.348 67.179,44.32 67.29C44.292 67.401,44.21 67.629,44.138 67.796C44.065 67.963,43.934 68.27,43.845 68.478C43.674 68.881,43.441 68.974,43.34 68.68C43.306 68.583,43.188 68.367,43.076 68.2C42.965 68.033,42.826 67.806,42.768 67.695C42.423 67.043,40.472 64.089,39.496 62.74C38.423 61.258,37.234 59.715,36.455 58.797C34.297 56.249,34.228 56.175,31.951 53.89C29.935 51.866,29.486 51.448,28.008 50.217C27.424 49.731,26.742 49.162,26.491 48.953C25.328 47.982,20.972 44.894,20.766 44.894C20.743 44.894,20.532 44.77,20.296 44.618C20.061 44.467,19.778 44.293,19.666 44.233C19.555 44.172,19.108 43.928,18.673 43.691C18.238 43.453,17.646 43.144,17.359 43.004C17.071 42.864,16.713 42.685,16.564 42.606C16.415 42.528,16.268 42.504,16.238 42.553C16.163 42.675,16.277 42.77,16.498 42.77C16.6 42.77,16.684 42.812,16.684 42.862C16.684 42.912,16.945 43.125,17.265 43.336C18.293 44.014,20.928 46.049,22.114 47.081C26.956 51.298,33.142 58.129,37.368 63.929C37.642 64.306,38.142 64.988,38.48 65.446C38.817 65.904,39.449 66.802,39.884 67.442C40.32 68.081,41.113 69.212,41.647 69.954C42.182 70.696,42.781 71.538,42.978 71.824C43.176 72.111,43.619 72.733,43.962 73.205C44.601 74.083,45.018 74.662,47.058 77.503C47.698 78.392,48.621 79.677,49.11 80.357C49.6 81.037,50.351 82.084,50.781 82.683C52.795 85.491,52.93 85.65,53.025 85.313C53.045 85.244,53.14 84.891,53.236 84.53C53.332 84.168,53.469 83.668,53.539 83.418C54.041 81.628,54.362 80.5,54.619 79.626C54.783 79.07,54.982 78.387,55.063 78.109C55.143 77.831,55.346 77.171,55.513 76.643C55.68 76.115,55.89 75.432,55.98 75.126C56.07 74.821,56.2 74.411,56.268 74.216C56.336 74.022,56.448 73.703,56.516 73.509C56.585 73.314,56.681 72.995,56.73 72.801C56.779 72.606,56.915 72.197,57.033 71.891C57.151 71.585,57.285 71.198,57.332 71.031C57.378 70.865,57.62 70.159,57.868 69.464C58.79 66.885,58.974 66.397,59.07 66.284C59.114 66.231,59.151 66.112,59.151 66.019C59.151 65.926,59.282 65.537,59.444 65.155C59.605 64.772,59.881 64.095,60.059 63.65C60.446 62.678,60.637 62.229,60.828 61.847C60.906 61.69,60.971 61.522,60.971 61.474C60.971 61.426,61.157 60.986,61.384 60.496C61.612 60.006,61.889 59.401,62.001 59.151C62.32 58.438,64.066 54.931,64.492 54.146C65.39 52.491,65.932 51.538,66.529 50.556C66.58 50.473,66.945 49.869,67.341 49.214C68.072 48.005,70.059 45.012,70.81 43.989C71.036 43.68,71.386 43.2,71.587 42.922C75.059 38.123,78.639 33.757,83.113 28.868C86.702 24.944,91.806 20.252,95.501 17.478C96.798 16.504,99.228 14.863,99.373 14.863C99.428 14.863,99.501 14.79,99.535 14.701C99.637 14.436,98.419 14.685,97.752 15.066C97.655 15.122,97.509 15.167,97.426 15.167C97.277 15.167,96.763 15.366,96.225 15.632C96.068 15.71,95.897 15.774,95.846 15.774C95.796 15.774,95.447 15.912,95.071 16.082C94.696 16.252,94.252 16.451,94.085 16.525C93.392 16.831,90.4 18.332,89.838 18.656C89.505 18.848,89.163 19.036,89.08 19.074C88.404 19.382,84.667 21.752,83.316 22.73C80.764 24.576,80.138 25.074,77.506 27.338C74.698 29.754,70.688 34.007,68.381 37.016C67.979 37.54,67.491 38.172,67.295 38.423C66.807 39.047,65.932 40.289,65.087 41.557C64.698 42.141,64.158 42.95,63.888 43.355C63.618 43.76,63.397 44.113,63.397 44.141C63.397 44.168,63.274 44.383,63.123 44.618C62.972 44.853,62.75 45.226,62.63 45.446C62.271 46.103,62.196 46.052,61.753 44.843C61.088 43.033,60.453 39.896,60.267 37.513C59.96 33.551,60.409 29.405,61.484 26.289C63.008 21.872,64.896 18.902,68.396 15.42C70.187 13.638,73.322 11.156,74.463 10.617C74.522 10.589,74.752 10.448,74.975 10.304C76.375 9.397,79.282 7.927,81.446 7.032C81.946 6.824,82.47 6.605,82.609 6.545C82.935 6.402,83.501 6.18,83.822 6.069C83.961 6.02,84.325 5.882,84.631 5.762C84.937 5.642,85.324 5.506,85.49 5.46C85.657 5.414,85.953 5.321,86.148 5.252C86.342 5.184,86.661 5.072,86.855 5.004C87.05 4.936,87.482 4.8,87.816 4.702C88.15 4.604,88.605 4.466,88.827 4.395C89.489 4.185,91.355 3.696,93.402 3.194C94.287 2.978,96.484 2.514,97.725 2.282C101.09 1.653,103.872 1.253,108.291 0.764C111.026 0.462,118.068 -0.039,118.807 0.016L119.262 0.051L119.236 1.314C119.21 2.604,119.006 4.565,118.748 6.016C118.669 6.461,118.605 6.952,118.605 7.108C118.605 7.263,118.541 7.673,118.463 8.018C118.282 8.823,118.098 9.737,118.001 10.313C117.959 10.564,117.869 10.996,117.8 11.274C117.731 11.552,117.608 12.053,117.525 12.386C117.269 13.429,117.07 14.189,116.931 14.661C116.629 15.69,116.142 17.275,115.968 17.796C115.624 18.83,115.542 19.058,115.243 19.818C115.078 20.235,114.876 20.758,114.793 20.981C114.612 21.469,114.446 21.873,114.233 22.346C114.146 22.54,113.972 22.927,113.848 23.205C111.058 29.439,107.351 34.56,102.73 38.564C101.18 39.908,98.178 42.073,97.282 42.494C97.192 42.536,96.982 42.657,96.815 42.763C96.113 43.208,92.625 44.894,92.407 44.894C92.346 44.894,92.175 44.957,92.028 45.035C91.565 45.277,89.886 45.86,88.524 46.251C88.19 46.346,87.758 46.475,87.563 46.537C87.369 46.598,87.027 46.683,86.805 46.726C86.288 46.824,85.545 46.992,84.809 47.176C84.49 47.255,84.098 47.321,83.937 47.321C83.776 47.321,83.332 47.385,82.95 47.465C81.598 47.745,76.808 48.146,75.005 48.131C74.803 48.129,73.834 49.409,72.555 51.365C72.065 52.116,71.586 52.844,71.492 52.983C71.398 53.122,71.289 53.304,71.251 53.387C71.212 53.471,71.091 53.675,70.981 53.842C70.871 54.009,70.749 54.214,70.711 54.297C70.673 54.381,70.543 54.608,70.422 54.803C70.301 54.997,69.942 55.652,69.624 56.257C69.305 56.862,69.006 57.431,68.957 57.521C68.687 58.025,67.714 60.138,67.392 60.92C66.729 62.53,66.449 63.241,66.397 63.448C66.369 63.559,66.248 63.9,66.127 64.206C66.006 64.512,65.872 64.899,65.828 65.066C65.785 65.233,65.703 65.483,65.646 65.622C65.589 65.761,65.462 66.148,65.364 66.481C65.266 66.815,65.13 67.27,65.06 67.492C64.871 68.101,64.427 69.838,64.169 70.981C63.138 75.55,62.567 80.666,62.439 86.502C62.223 96.301,62.141 96.899,60.819 98.237C59.413 99.659,56.633 100.361,54.297 99.883Z"/></g><text x="182.66" y="50.24" text-anchor="end" font-family="Porteron, Arial, sans-serif" font-weight="400" font-size="24.5">Investering</text></svg>